<mxfile host="app.diagrams.net" modified="2022-10-22T03:03:37.661Z" agent="5.0 (Macintosh; Intel Mac OS X 10_15_7) AppleWebKit/537.36 (KHTML, like Gecko) Chrome/106.0.0.0 Safari/537.36" version="20.4.0" etag="jJFzj9CPkVaM9Ky6xJ48" type="github">
  <diagram id="KPb7lOeOR-Pd4nVIoNpo" name="ページ1">
    <mxGraphModel dx="742" dy="429" grid="1" gridSize="10" guides="1" tooltips="1" connect="1" arrows="1" fold="1" page="1" pageScale="1" pageWidth="827" pageHeight="1169" background="#FFFFFF" math="0" shadow="0">
      <root>
        <mxCell id="0" />
        <mxCell id="1" parent="0" />
        <mxCell id="V0ArmqJ_Q4vcWamPxunL-76" value="" style="endArrow=classic;html=1;rounded=0;labelBorderColor=default;strokeWidth=2;fontColor=#000000;" parent="1" edge="1">
          <mxGeometry width="50" height="50" relative="1" as="geometry">
            <mxPoint x="170" y="675" as="sourcePoint" />
            <mxPoint x="170" y="820" as="targetPoint" />
          </mxGeometry>
        </mxCell>
        <mxCell id="V0ArmqJ_Q4vcWamPxunL-1" value="Client1" style="shape=umlActor;verticalLabelPosition=bottom;verticalAlign=top;html=1;outlineConnect=0;" parent="1" vertex="1">
          <mxGeometry x="10" y="50" width="30" height="60" as="geometry" />
        </mxCell>
        <mxCell id="V0ArmqJ_Q4vcWamPxunL-3" value="Backend" style="rounded=0;whiteSpace=wrap;html=1;" parent="1" vertex="1">
          <mxGeometry x="448.36" y="20" width="120" height="20" as="geometry" />
        </mxCell>
        <mxCell id="V0ArmqJ_Q4vcWamPxunL-5" value="Frontend" style="rounded=0;whiteSpace=wrap;html=1;" parent="1" vertex="1">
          <mxGeometry x="10" y="20" width="120" height="20" as="geometry" />
        </mxCell>
        <mxCell id="V0ArmqJ_Q4vcWamPxunL-6" value="" style="endArrow=none;dashed=1;html=1;dashPattern=1 3;strokeWidth=2;rounded=0;entryX=0.5;entryY=1;entryDx=0;entryDy=0;" parent="1" target="V0ArmqJ_Q4vcWamPxunL-5" edge="1">
          <mxGeometry width="50" height="50" relative="1" as="geometry">
            <mxPoint x="70" y="890" as="sourcePoint" />
            <mxPoint x="96" y="310" as="targetPoint" />
          </mxGeometry>
        </mxCell>
        <mxCell id="V0ArmqJ_Q4vcWamPxunL-7" value="" style="endArrow=none;dashed=1;html=1;dashPattern=1 3;strokeWidth=2;rounded=0;entryX=0.5;entryY=1;entryDx=0;entryDy=0;" parent="1" edge="1">
          <mxGeometry width="50" height="50" relative="1" as="geometry">
            <mxPoint x="508.36" y="890" as="sourcePoint" />
            <mxPoint x="508.36" y="40" as="targetPoint" />
          </mxGeometry>
        </mxCell>
        <mxCell id="V0ArmqJ_Q4vcWamPxunL-8" value="" style="endArrow=classic;html=1;rounded=0;strokeWidth=2;" parent="1" edge="1">
          <mxGeometry width="50" height="50" relative="1" as="geometry">
            <mxPoint x="70" y="90" as="sourcePoint" />
            <mxPoint x="510" y="90" as="targetPoint" />
          </mxGeometry>
        </mxCell>
        <mxCell id="V0ArmqJ_Q4vcWamPxunL-16" value="POST localhost:8000/api/createRoom" style="edgeLabel;html=1;align=center;verticalAlign=middle;resizable=0;points=[];" parent="V0ArmqJ_Q4vcWamPxunL-8" vertex="1" connectable="0">
          <mxGeometry x="-0.5753" relative="1" as="geometry">
            <mxPoint x="16" as="offset" />
          </mxGeometry>
        </mxCell>
        <mxCell id="V0ArmqJ_Q4vcWamPxunL-9" value="" style="endArrow=none;html=1;rounded=0;startArrow=classic;startFill=1;endFill=0;strokeWidth=2;labelBorderColor=default;" parent="1" edge="1">
          <mxGeometry width="50" height="50" relative="1" as="geometry">
            <mxPoint x="70" y="130" as="sourcePoint" />
            <mxPoint x="510" y="130" as="targetPoint" />
          </mxGeometry>
        </mxCell>
        <mxCell id="V0ArmqJ_Q4vcWamPxunL-18" value="&lt;span style=&quot;font-size: 12px; background-color: rgb(248, 249, 250);&quot;&gt;200 OK&lt;br&gt;{&lt;/span&gt;&lt;br style=&quot;font-size: 12px; background-color: rgb(248, 249, 250);&quot;&gt;&lt;span style=&quot;font-size: 12px; background-color: rgb(248, 249, 250);&quot;&gt;&amp;nbsp; &amp;nbsp; &quot;userID&quot;: &quot;UEJ76FB&quot;,&lt;/span&gt;&lt;br style=&quot;font-size: 12px; background-color: rgb(248, 249, 250);&quot;&gt;&lt;span style=&quot;font-size: 12px; background-color: rgb(248, 249, 250);&quot;&gt;&amp;nbsp; &amp;nbsp; &quot;roomID&quot;: &quot;R6X3DZ&quot;,&lt;/span&gt;&lt;br style=&quot;font-size: 12px; background-color: rgb(248, 249, 250);&quot;&gt;&lt;span style=&quot;font-size: 12px; background-color: rgb(248, 249, 250);&quot;&gt;&amp;nbsp; &amp;nbsp; &quot;userName&quot;: &quot;KF&quot;,&lt;/span&gt;&lt;br style=&quot;font-size: 12px; background-color: rgb(248, 249, 250);&quot;&gt;&lt;span style=&quot;font-size: 12px; background-color: rgb(248, 249, 250);&quot;&gt;&amp;nbsp; &amp;nbsp; &quot;permission&quot;: &quot;admin&quot;&lt;/span&gt;&lt;br style=&quot;font-size: 12px; background-color: rgb(248, 249, 250);&quot;&gt;&lt;span style=&quot;font-size: 12px; background-color: rgb(248, 249, 250);&quot;&gt;}&lt;/span&gt;" style="edgeLabel;html=1;align=left;verticalAlign=middle;resizable=0;points=[];labelBorderColor=default;" parent="V0ArmqJ_Q4vcWamPxunL-9" vertex="1" connectable="0">
          <mxGeometry x="0.0881" y="-1" relative="1" as="geometry">
            <mxPoint x="51" y="19" as="offset" />
          </mxGeometry>
        </mxCell>
        <mxCell id="V0ArmqJ_Q4vcWamPxunL-11" value="" style="endArrow=classic;html=1;rounded=0;strokeWidth=2;" parent="1" edge="1">
          <mxGeometry width="50" height="50" relative="1" as="geometry">
            <mxPoint x="508.5" y="90" as="sourcePoint" />
            <mxPoint x="508.84000000000003" y="130" as="targetPoint" />
          </mxGeometry>
        </mxCell>
        <mxCell id="V0ArmqJ_Q4vcWamPxunL-19" value="" style="endArrow=classic;html=1;rounded=0;strokeWidth=2;" parent="1" edge="1">
          <mxGeometry width="50" height="50" relative="1" as="geometry">
            <mxPoint x="70" y="220" as="sourcePoint" />
            <mxPoint x="510" y="220" as="targetPoint" />
          </mxGeometry>
        </mxCell>
        <mxCell id="V0ArmqJ_Q4vcWamPxunL-20" value="ws://localhost:8000/ws/{roomID}/?userID={userID}" style="edgeLabel;html=1;align=center;verticalAlign=middle;resizable=0;points=[];" parent="V0ArmqJ_Q4vcWamPxunL-19" vertex="1" connectable="0">
          <mxGeometry x="-0.5753" relative="1" as="geometry">
            <mxPoint x="46" as="offset" />
          </mxGeometry>
        </mxCell>
        <mxCell id="V0ArmqJ_Q4vcWamPxunL-21" value="" style="endArrow=classic;html=1;rounded=0;strokeWidth=2;" parent="1" edge="1">
          <mxGeometry width="50" height="50" relative="1" as="geometry">
            <mxPoint x="70" y="130" as="sourcePoint" />
            <mxPoint x="70" y="220" as="targetPoint" />
          </mxGeometry>
        </mxCell>
        <mxCell id="V0ArmqJ_Q4vcWamPxunL-22" value="" style="endArrow=classic;startArrow=classic;html=1;rounded=0;strokeWidth=2;" parent="1" edge="1">
          <mxGeometry width="50" height="50" relative="1" as="geometry">
            <mxPoint x="70" y="260" as="sourcePoint" />
            <mxPoint x="510" y="260" as="targetPoint" />
          </mxGeometry>
        </mxCell>
        <mxCell id="V0ArmqJ_Q4vcWamPxunL-33" value="WebSocket Connection" style="edgeLabel;html=1;align=center;verticalAlign=middle;resizable=0;points=[];" parent="V0ArmqJ_Q4vcWamPxunL-22" vertex="1" connectable="0">
          <mxGeometry x="0.1292" y="3" relative="1" as="geometry">
            <mxPoint x="91" y="3" as="offset" />
          </mxGeometry>
        </mxCell>
        <mxCell id="V0ArmqJ_Q4vcWamPxunL-23" value="" style="endArrow=classic;html=1;rounded=0;strokeWidth=2;" parent="1" edge="1">
          <mxGeometry width="50" height="50" relative="1" as="geometry">
            <mxPoint x="508.5" y="220" as="sourcePoint" />
            <mxPoint x="508.5" y="260" as="targetPoint" />
          </mxGeometry>
        </mxCell>
        <mxCell id="V0ArmqJ_Q4vcWamPxunL-26" value="func controller.CreateRoom&lt;br&gt;&amp;nbsp; // saves received info&amp;nbsp;to PokerRooms" style="text;html=1;strokeColor=none;fillColor=none;align=left;verticalAlign=middle;whiteSpace=wrap;rounded=0;labelBackgroundColor=none;labelBorderColor=none;" parent="1" vertex="1">
          <mxGeometry x="510" y="90" width="230" height="30" as="geometry" />
        </mxCell>
        <mxCell id="V0ArmqJ_Q4vcWamPxunL-28" value="func controller.ConnectRoom&lt;br&gt;&amp;nbsp; // upgrades http to WebSocket" style="text;html=1;align=left;verticalAlign=middle;resizable=0;points=[];autosize=1;strokeColor=none;fillColor=none;" parent="1" vertex="1">
          <mxGeometry x="510" y="220" width="190" height="40" as="geometry" />
        </mxCell>
        <mxCell id="V0ArmqJ_Q4vcWamPxunL-29" value="Frontend" style="rounded=0;whiteSpace=wrap;html=1;" parent="1" vertex="1">
          <mxGeometry x="110" y="300" width="120" height="20" as="geometry" />
        </mxCell>
        <mxCell id="V0ArmqJ_Q4vcWamPxunL-30" value="" style="endArrow=none;dashed=1;html=1;dashPattern=1 3;strokeWidth=2;rounded=0;entryX=0.5;entryY=1;entryDx=0;entryDy=0;" parent="1" target="V0ArmqJ_Q4vcWamPxunL-29" edge="1">
          <mxGeometry width="50" height="50" relative="1" as="geometry">
            <mxPoint x="170" y="890" as="sourcePoint" />
            <mxPoint x="196" y="560" as="targetPoint" />
          </mxGeometry>
        </mxCell>
        <mxCell id="V0ArmqJ_Q4vcWamPxunL-31" value="Client2" style="shape=umlActor;verticalLabelPosition=bottom;verticalAlign=top;html=1;outlineConnect=0;" parent="1" vertex="1">
          <mxGeometry x="110" y="325" width="30" height="60" as="geometry" />
        </mxCell>
        <mxCell id="V0ArmqJ_Q4vcWamPxunL-34" value="" style="endArrow=classic;html=1;rounded=0;strokeWidth=2;" parent="1" edge="1">
          <mxGeometry width="50" height="50" relative="1" as="geometry">
            <mxPoint x="170" y="340" as="sourcePoint" />
            <mxPoint x="510" y="340" as="targetPoint" />
          </mxGeometry>
        </mxCell>
        <mxCell id="V0ArmqJ_Q4vcWamPxunL-35" value="POST localhost:8000/api/joinRoom" style="edgeLabel;html=1;align=center;verticalAlign=middle;resizable=0;points=[];" parent="V0ArmqJ_Q4vcWamPxunL-34" vertex="1" connectable="0">
          <mxGeometry x="-0.7891" relative="1" as="geometry">
            <mxPoint x="64" as="offset" />
          </mxGeometry>
        </mxCell>
        <mxCell id="V0ArmqJ_Q4vcWamPxunL-37" value="func controller.JoinRoom&lt;br&gt;&amp;nbsp; // 受け取ったデータをPokerRoomsに格納" style="text;html=1;strokeColor=none;fillColor=none;align=left;verticalAlign=middle;whiteSpace=wrap;rounded=0;labelBackgroundColor=none;labelBorderColor=none;" parent="1" vertex="1">
          <mxGeometry x="510" y="340" width="240" height="30" as="geometry" />
        </mxCell>
        <mxCell id="V0ArmqJ_Q4vcWamPxunL-38" value="" style="endArrow=none;html=1;rounded=0;startArrow=classic;startFill=1;endFill=0;strokeWidth=2;" parent="1" edge="1">
          <mxGeometry width="50" height="50" relative="1" as="geometry">
            <mxPoint x="170" y="380" as="sourcePoint" />
            <mxPoint x="510" y="380" as="targetPoint" />
          </mxGeometry>
        </mxCell>
        <mxCell id="V0ArmqJ_Q4vcWamPxunL-39" value="&lt;span style=&quot;font-size: 12px; background-color: rgb(248, 249, 250);&quot;&gt;200 OK&lt;br&gt;{&lt;/span&gt;&lt;br style=&quot;font-size: 12px; background-color: rgb(248, 249, 250);&quot;&gt;&lt;span style=&quot;font-size: 12px; background-color: rgb(248, 249, 250);&quot;&gt;&amp;nbsp; &amp;nbsp; &quot;userID&quot;: &quot;&lt;/span&gt;&lt;span style=&quot;background-color: rgb(255, 255, 254); font-size: 12px;&quot;&gt;UZW3IM&lt;/span&gt;&lt;span style=&quot;background-color: rgb(248, 249, 250); font-size: 12px;&quot;&gt;&quot;,&lt;/span&gt;&lt;br&gt;&lt;span style=&quot;font-size: 12px; background-color: rgb(248, 249, 250);&quot;&gt;&amp;nbsp; &amp;nbsp; &quot;roomID&quot;: &quot;R6X3DZ&quot;,&lt;/span&gt;&lt;br style=&quot;font-size: 12px; background-color: rgb(248, 249, 250);&quot;&gt;&lt;span style=&quot;font-size: 12px; background-color: rgb(248, 249, 250);&quot;&gt;&amp;nbsp; &amp;nbsp; &quot;userName&quot;: &quot;TK&quot;,&lt;/span&gt;&lt;br style=&quot;font-size: 12px; background-color: rgb(248, 249, 250);&quot;&gt;&lt;span style=&quot;font-size: 12px; background-color: rgb(248, 249, 250);&quot;&gt;&amp;nbsp; &amp;nbsp; &quot;permission&quot;: &quot;normal&quot;&lt;/span&gt;&lt;br style=&quot;font-size: 12px; background-color: rgb(248, 249, 250);&quot;&gt;&lt;span style=&quot;font-size: 12px; background-color: rgb(248, 249, 250);&quot;&gt;}&lt;/span&gt;" style="edgeLabel;html=1;align=left;verticalAlign=middle;resizable=0;points=[];labelBorderColor=default;" parent="V0ArmqJ_Q4vcWamPxunL-38" vertex="1" connectable="0">
          <mxGeometry x="0.0881" y="-1" relative="1" as="geometry">
            <mxPoint x="5" y="29" as="offset" />
          </mxGeometry>
        </mxCell>
        <mxCell id="V0ArmqJ_Q4vcWamPxunL-40" value="" style="endArrow=classic;html=1;rounded=0;strokeWidth=2;" parent="1" edge="1">
          <mxGeometry width="50" height="50" relative="1" as="geometry">
            <mxPoint x="508.5" y="340" as="sourcePoint" />
            <mxPoint x="508.84000000000015" y="380" as="targetPoint" />
          </mxGeometry>
        </mxCell>
        <mxCell id="V0ArmqJ_Q4vcWamPxunL-41" value="" style="endArrow=classic;html=1;rounded=0;strokeWidth=2;" parent="1" edge="1">
          <mxGeometry width="50" height="50" relative="1" as="geometry">
            <mxPoint x="169.70999999999998" y="380" as="sourcePoint" />
            <mxPoint x="169.70999999999998" y="470" as="targetPoint" />
          </mxGeometry>
        </mxCell>
        <mxCell id="V0ArmqJ_Q4vcWamPxunL-42" value="" style="endArrow=classic;html=1;rounded=0;strokeWidth=2;" parent="1" edge="1">
          <mxGeometry width="50" height="50" relative="1" as="geometry">
            <mxPoint x="170" y="470" as="sourcePoint" />
            <mxPoint x="510" y="470" as="targetPoint" />
          </mxGeometry>
        </mxCell>
        <mxCell id="V0ArmqJ_Q4vcWamPxunL-43" value="ws://localhost:8000/ws/{roomID}/?userID={userID}" style="edgeLabel;html=1;align=center;verticalAlign=middle;resizable=0;points=[];" parent="V0ArmqJ_Q4vcWamPxunL-42" vertex="1" connectable="0">
          <mxGeometry x="-0.5753" relative="1" as="geometry">
            <mxPoint x="58" as="offset" />
          </mxGeometry>
        </mxCell>
        <mxCell id="V0ArmqJ_Q4vcWamPxunL-44" value="" style="endArrow=classic;startArrow=classic;html=1;rounded=0;strokeWidth=2;" parent="1" edge="1">
          <mxGeometry width="50" height="50" relative="1" as="geometry">
            <mxPoint x="170" y="510" as="sourcePoint" />
            <mxPoint x="510" y="510" as="targetPoint" />
          </mxGeometry>
        </mxCell>
        <mxCell id="V0ArmqJ_Q4vcWamPxunL-45" value="WebSocket Connection" style="edgeLabel;html=1;align=center;verticalAlign=middle;resizable=0;points=[];" parent="V0ArmqJ_Q4vcWamPxunL-44" vertex="1" connectable="0">
          <mxGeometry x="0.1292" y="3" relative="1" as="geometry">
            <mxPoint x="68" y="3" as="offset" />
          </mxGeometry>
        </mxCell>
        <mxCell id="V0ArmqJ_Q4vcWamPxunL-46" value="" style="endArrow=classic;html=1;rounded=0;strokeWidth=2;" parent="1" edge="1">
          <mxGeometry width="50" height="50" relative="1" as="geometry">
            <mxPoint x="508.5" y="470" as="sourcePoint" />
            <mxPoint x="508.5" y="510" as="targetPoint" />
          </mxGeometry>
        </mxCell>
        <mxCell id="V0ArmqJ_Q4vcWamPxunL-47" value="func controller.ConnectRoom&lt;br&gt;&amp;nbsp; // httpからWebSocketにアップグレード" style="text;html=1;align=left;verticalAlign=middle;resizable=0;points=[];autosize=1;strokeColor=none;fillColor=none;" parent="1" vertex="1">
          <mxGeometry x="510" y="470" width="240" height="40" as="geometry" />
        </mxCell>
        <mxCell id="V0ArmqJ_Q4vcWamPxunL-48" value="" style="endArrow=classic;html=1;rounded=0;strokeWidth=2;" parent="1" edge="1">
          <mxGeometry width="50" height="50" relative="1" as="geometry">
            <mxPoint x="70" y="585" as="sourcePoint" />
            <mxPoint x="510" y="585" as="targetPoint" />
          </mxGeometry>
        </mxCell>
        <mxCell id="V0ArmqJ_Q4vcWamPxunL-49" value="GET http://localhost:8000/api/ingame/{roomID}/options" style="edgeLabel;html=1;align=center;verticalAlign=middle;resizable=0;points=[];" parent="V0ArmqJ_Q4vcWamPxunL-48" vertex="1" connectable="0">
          <mxGeometry x="-0.8708" y="-2" relative="1" as="geometry">
            <mxPoint x="132" y="-2" as="offset" />
          </mxGeometry>
        </mxCell>
        <mxCell id="V0ArmqJ_Q4vcWamPxunL-50" value="" style="endArrow=classic;html=1;rounded=0;strokeWidth=2;" parent="1" edge="1">
          <mxGeometry width="50" height="50" relative="1" as="geometry">
            <mxPoint x="508.15999999999997" y="585" as="sourcePoint" />
            <mxPoint x="508.15999999999997" y="625" as="targetPoint" />
          </mxGeometry>
        </mxCell>
        <mxCell id="V0ArmqJ_Q4vcWamPxunL-51" value="func controller.IngameStartGame&lt;br&gt;// ルームのステータスを&quot;waiting&quot;から&quot;on game&quot;に変更" style="text;html=1;align=left;verticalAlign=middle;resizable=0;points=[];autosize=1;strokeColor=none;fillColor=none;" parent="1" vertex="1">
          <mxGeometry x="510" y="590" width="310" height="40" as="geometry" />
        </mxCell>
        <mxCell id="V0ArmqJ_Q4vcWamPxunL-53" value="" style="endArrow=classic;html=1;rounded=0;strokeWidth=2;" parent="1" edge="1">
          <mxGeometry width="50" height="50" relative="1" as="geometry">
            <mxPoint x="510" y="625" as="sourcePoint" />
            <mxPoint x="69" y="625" as="targetPoint" />
          </mxGeometry>
        </mxCell>
        <mxCell id="V0ArmqJ_Q4vcWamPxunL-54" value="204 No Context" style="edgeLabel;html=1;align=center;verticalAlign=middle;resizable=0;points=[];" parent="V0ArmqJ_Q4vcWamPxunL-53" vertex="1" connectable="0">
          <mxGeometry x="-0.6432" y="-1" relative="1" as="geometry">
            <mxPoint x="17" as="offset" />
          </mxGeometry>
        </mxCell>
        <mxCell id="V0ArmqJ_Q4vcWamPxunL-55" value="" style="endArrow=classic;startArrow=classic;html=1;rounded=0;strokeWidth=2;" parent="1" edge="1">
          <mxGeometry width="50" height="50" relative="1" as="geometry">
            <mxPoint x="170" y="675" as="sourcePoint" />
            <mxPoint x="510" y="675" as="targetPoint" />
          </mxGeometry>
        </mxCell>
        <mxCell id="V0ArmqJ_Q4vcWamPxunL-56" value="ルーム情報をWebSocketを用いて&lt;br&gt;全ての接続中のクライアントに送信する" style="edgeLabel;html=1;align=left;verticalAlign=middle;resizable=0;points=[];" parent="V0ArmqJ_Q4vcWamPxunL-55" vertex="1" connectable="0">
          <mxGeometry x="0.1292" y="3" relative="1" as="geometry">
            <mxPoint x="158" y="-7" as="offset" />
          </mxGeometry>
        </mxCell>
        <mxCell id="V0ArmqJ_Q4vcWamPxunL-60" value="WebSocket Connection" style="edgeLabel;html=1;align=center;verticalAlign=middle;resizable=0;points=[];" parent="V0ArmqJ_Q4vcWamPxunL-55" vertex="1" connectable="0">
          <mxGeometry x="0.5504" y="1" relative="1" as="geometry">
            <mxPoint as="offset" />
          </mxGeometry>
        </mxCell>
        <mxCell id="V0ArmqJ_Q4vcWamPxunL-57" value="" style="endArrow=classic;html=1;rounded=0;strokeWidth=2;" parent="1" edge="1">
          <mxGeometry width="50" height="50" relative="1" as="geometry">
            <mxPoint x="508.15999999999985" y="627" as="sourcePoint" />
            <mxPoint x="508" y="675" as="targetPoint" />
          </mxGeometry>
        </mxCell>
        <mxCell id="V0ArmqJ_Q4vcWamPxunL-58" value="" style="endArrow=classic;startArrow=classic;html=1;rounded=0;strokeWidth=2;" parent="1" edge="1">
          <mxGeometry width="50" height="50" relative="1" as="geometry">
            <mxPoint x="70" y="655" as="sourcePoint" />
            <mxPoint x="510" y="655" as="targetPoint" />
          </mxGeometry>
        </mxCell>
        <mxCell id="V0ArmqJ_Q4vcWamPxunL-59" value="WebSocket Connection" style="edgeLabel;html=1;align=center;verticalAlign=middle;resizable=0;points=[];" parent="V0ArmqJ_Q4vcWamPxunL-58" vertex="1" connectable="0">
          <mxGeometry x="0.1292" y="3" relative="1" as="geometry">
            <mxPoint x="91" y="3" as="offset" />
          </mxGeometry>
        </mxCell>
        <mxCell id="V0ArmqJ_Q4vcWamPxunL-61" value="" style="endArrow=none;html=1;rounded=0;labelBorderColor=default;strokeWidth=2;fontColor=#000000;shape=link;" parent="1" edge="1">
          <mxGeometry width="50" height="50" relative="1" as="geometry">
            <mxPoint x="10" y="534" as="sourcePoint" />
            <mxPoint x="820" y="534" as="targetPoint" />
          </mxGeometry>
        </mxCell>
        <mxCell id="V0ArmqJ_Q4vcWamPxunL-66" value="プレイヤーが全員集合後" style="text;html=1;strokeColor=none;fillColor=none;align=center;verticalAlign=middle;whiteSpace=wrap;rounded=0;labelBackgroundColor=default;labelBorderColor=default;fontColor=#000000;" parent="1" vertex="1">
          <mxGeometry x="10" y="540" width="150" height="30" as="geometry" />
        </mxCell>
        <mxCell id="V0ArmqJ_Q4vcWamPxunL-67" value="" style="endArrow=classic;html=1;rounded=0;labelBorderColor=default;strokeWidth=2;fontColor=#000000;" parent="1" edge="1">
          <mxGeometry width="50" height="50" relative="1" as="geometry">
            <mxPoint x="70" y="660" as="sourcePoint" />
            <mxPoint x="70" y="710" as="targetPoint" />
          </mxGeometry>
        </mxCell>
        <mxCell id="V0ArmqJ_Q4vcWamPxunL-68" value="WebSocket切断&lt;br&gt;ゲーム画面へ遷移" style="edgeLabel;html=1;align=left;verticalAlign=middle;resizable=0;points=[];" parent="1" vertex="1" connectable="0">
          <mxGeometry x="75.00413793103439" y="690" as="geometry">
            <mxPoint x="-2" y="-9" as="offset" />
          </mxGeometry>
        </mxCell>
        <mxCell id="V0ArmqJ_Q4vcWamPxunL-70" value="" style="endArrow=classic;html=1;rounded=0;strokeWidth=2;" parent="1" edge="1">
          <mxGeometry width="50" height="50" relative="1" as="geometry">
            <mxPoint x="70" y="710" as="sourcePoint" />
            <mxPoint x="510" y="710" as="targetPoint" />
          </mxGeometry>
        </mxCell>
        <mxCell id="V0ArmqJ_Q4vcWamPxunL-71" value="ws://localhost:8000/ws/{roomID}/?userID={userID}" style="edgeLabel;html=1;align=center;verticalAlign=middle;resizable=0;points=[];" parent="V0ArmqJ_Q4vcWamPxunL-70" vertex="1" connectable="0">
          <mxGeometry x="-0.5753" relative="1" as="geometry">
            <mxPoint x="46" as="offset" />
          </mxGeometry>
        </mxCell>
        <mxCell id="V0ArmqJ_Q4vcWamPxunL-72" value="" style="endArrow=classic;startArrow=classic;html=1;rounded=0;strokeWidth=2;" parent="1" edge="1">
          <mxGeometry width="50" height="50" relative="1" as="geometry">
            <mxPoint x="70" y="750" as="sourcePoint" />
            <mxPoint x="510" y="750" as="targetPoint" />
          </mxGeometry>
        </mxCell>
        <mxCell id="V0ArmqJ_Q4vcWamPxunL-73" value="WebSocket Connection" style="edgeLabel;html=1;align=center;verticalAlign=middle;resizable=0;points=[];" parent="V0ArmqJ_Q4vcWamPxunL-72" vertex="1" connectable="0">
          <mxGeometry x="0.1292" y="3" relative="1" as="geometry">
            <mxPoint x="91" y="3" as="offset" />
          </mxGeometry>
        </mxCell>
        <mxCell id="V0ArmqJ_Q4vcWamPxunL-74" value="" style="endArrow=classic;html=1;rounded=0;strokeWidth=2;" parent="1" edge="1">
          <mxGeometry width="50" height="50" relative="1" as="geometry">
            <mxPoint x="508.4999999999998" y="710" as="sourcePoint" />
            <mxPoint x="508.4999999999998" y="750" as="targetPoint" />
          </mxGeometry>
        </mxCell>
        <mxCell id="V0ArmqJ_Q4vcWamPxunL-75" value="func controller.ConnectRoom&lt;br&gt;&amp;nbsp; // upgrades http to WebSocket" style="text;html=1;align=left;verticalAlign=middle;resizable=0;points=[];autosize=1;strokeColor=none;fillColor=none;" parent="1" vertex="1">
          <mxGeometry x="510" y="710" width="190" height="40" as="geometry" />
        </mxCell>
        <mxCell id="V0ArmqJ_Q4vcWamPxunL-83" value="" style="endArrow=classic;html=1;rounded=0;strokeWidth=2;" parent="1" edge="1">
          <mxGeometry width="50" height="50" relative="1" as="geometry">
            <mxPoint x="170" y="820" as="sourcePoint" />
            <mxPoint x="510" y="820" as="targetPoint" />
          </mxGeometry>
        </mxCell>
        <mxCell id="V0ArmqJ_Q4vcWamPxunL-84" value="ws://localhost:8000/ws/{roomID}/?userID={userID}" style="edgeLabel;html=1;align=center;verticalAlign=middle;resizable=0;points=[];" parent="V0ArmqJ_Q4vcWamPxunL-83" vertex="1" connectable="0">
          <mxGeometry x="-0.5753" relative="1" as="geometry">
            <mxPoint x="58" as="offset" />
          </mxGeometry>
        </mxCell>
        <mxCell id="V0ArmqJ_Q4vcWamPxunL-85" value="" style="endArrow=classic;startArrow=classic;html=1;rounded=0;strokeWidth=2;" parent="1" edge="1">
          <mxGeometry width="50" height="50" relative="1" as="geometry">
            <mxPoint x="170" y="860" as="sourcePoint" />
            <mxPoint x="510" y="860" as="targetPoint" />
          </mxGeometry>
        </mxCell>
        <mxCell id="V0ArmqJ_Q4vcWamPxunL-86" value="WebSocket Connection" style="edgeLabel;html=1;align=center;verticalAlign=middle;resizable=0;points=[];" parent="V0ArmqJ_Q4vcWamPxunL-85" vertex="1" connectable="0">
          <mxGeometry x="0.1292" y="3" relative="1" as="geometry">
            <mxPoint x="68" y="3" as="offset" />
          </mxGeometry>
        </mxCell>
        <mxCell id="V0ArmqJ_Q4vcWamPxunL-87" value="" style="endArrow=classic;html=1;rounded=0;strokeWidth=2;" parent="1" edge="1">
          <mxGeometry width="50" height="50" relative="1" as="geometry">
            <mxPoint x="508.5" y="820" as="sourcePoint" />
            <mxPoint x="508.5" y="860" as="targetPoint" />
          </mxGeometry>
        </mxCell>
        <mxCell id="V0ArmqJ_Q4vcWamPxunL-88" value="func controller.ConnectRoom&lt;br&gt;&amp;nbsp; // httpからWebSocketにアップグレード" style="text;html=1;align=left;verticalAlign=middle;resizable=0;points=[];autosize=1;strokeColor=none;fillColor=none;" parent="1" vertex="1">
          <mxGeometry x="510" y="820" width="240" height="40" as="geometry" />
        </mxCell>
        <mxCell id="V0ArmqJ_Q4vcWamPxunL-90" value="WebSocket切断&lt;br&gt;ゲーム画面へ遷移" style="edgeLabel;html=1;align=left;verticalAlign=middle;resizable=0;points=[];" parent="1" vertex="1" connectable="0">
          <mxGeometry x="180.0041379310344" y="790" as="geometry">
            <mxPoint x="-2" y="-9" as="offset" />
          </mxGeometry>
        </mxCell>
      </root>
    </mxGraphModel>
  </diagram>
</mxfile>
